<?xml version="1.0" encoding="utf-8"?>
<!-- Generator: Adobe Adobe Illustrator 24.2.0, SVG Export Plug-In . SVG Version: 6.00 Build 0)  -->
<svg version="1.1" id="Capa_2" xmlns="http://www.w3.org/2000/svg" xmlns:xlink="http://www.w3.org/1999/xlink" x="0px" y="0px"
	 width="2134.1px" height="1420.4px" viewBox="0 0 2134.1 1420.4" style="enable-background:new 0 0 2134.1 1420.4;"
	 xml:space="preserve">
<style type="text/css">
	.st0{fill:#FF3389;}
</style>
<g id="Capa_1-2">
	<g>
		<path class="st0" d="M2134.1,584.3c-0.1-1-0.2-2.1-0.3-3.2V0H0.2v637.3c0,3.5,0.8,6.7,2.3,9.6c0.8,3.9,1.8,7.6,3,11l-1.1,0.8v1.2
			c-2.8,2.2-4.3,3.3-4.3,3.5c1.4-0.1,14.2-0.2,38.4-0.2l378.6-0.6l26.7,0.2h77.8v-61c0-40.8,4.3-80.5,12.8-119.1l39.5-0.4l80,66.3
			c1.4,4.6,7.1,10.4,17,17.3c10,6.9,16.4,11.4,19.2,13.4l97,81.2l-1.1-0.2c3.5,2.9,21.7,4.3,54.4,4.3h29.9l84.2-0.2h50.1l65.1-0.2
			l119.4,0.6h13.9c66.8,0,104.5-1,113-2.9c7.1-5.6,16.5-13.8,28.3-24.7c11.7-10.8,20.1-18.4,25.1-22.6l9.6-8.2
			c66.8-57,112-93.8,135.4-110.3l40.5,1.4c0.7,7,1.1,17.7,1.1,32.3v16.6l-2.1,64.2c0,32.3,12.4,50.6,37.3,54.8
			c134.4,0,236-0.1,305-0.2h55.4c0.5,0,1.1,0,1.6,0c0.8,0.1,1.7,0.2,2.6,0.2h159.3c3.8,0,7.3-1.1,10.2-3.1c1.1-0.2,1.9-0.5,2.2-0.8
			c0.1-0.4,0.1-0.8,0.2-1.1c3.6-3.4,5.9-8.2,5.9-13.5v-45.2C2133.9,596.1,2134.1,590.3,2134.1,584.3L2134.1,584.3z M1239.3,350.7
			h-4.3c-4.3,1.1-10.3,6.6-18.1,16.5c-7.8,9.9-12.8,15.9-14.9,17.9l-136.5,133.8h-37.3l-75.7-73.2c-40.5-38.7-71.1-69.8-91.7-93.3
			c-37.7,0-99.7-0.5-186.1-1.6S444.9,349,244.4,349l-47.8,0.1V196.4h1740.7v153l-3.7,0L1239.3,350.7L1239.3,350.7z"/>
		<path class="st0" d="M2133.9,836.1c-0.1,1-0.2,2.1-0.3,3.2v581.1H0V783.1c0-3.5,0.8-6.7,2.3-9.6c0.8-3.9,1.8-7.6,3-11l-1.1-0.8
			v-1.2C1.5,758.2,0,757,0,756.9c1.4,0.1,14.2,0.2,38.4,0.2l378.6,0.6l26.7-0.2h77.8v61c0,40.8,4.3,80.5,12.8,119.1l39.5,0.4
			l80-66.3c1.4-4.6,7.1-10.4,17-17.3c10-6.9,16.4-11.4,19.2-13.4l97-81.2L786,760c3.5-2.9,21.7-4.3,54.4-4.3h29.9l84.2,0.2h50.1
			l65.1,0.2l119.4-0.6h13.9c66.8,0,104.5,1,113,2.9c7.1,5.6,16.5,13.8,28.3,24.7c11.7,10.8,20.1,18.4,25.1,22.6l9.6,8.2
			c66.8,57,112,93.8,135.4,110.3l40.5-1.4c0.7-7,1.1-17.7,1.1-32.3v-16.6l-2.1-64.2c0-32.3,12.4-50.6,37.3-54.8
			c134.4,0,236,0.1,305,0.2h55.4c0.5,0,1.1,0,1.6,0c0.8-0.1,1.7-0.2,2.6-0.2H2115c3.8,0,7.3,1.1,10.2,3.1c1.1,0.2,1.9,0.5,2.2,0.8
			c0.1,0.4,0.1,0.8,0.2,1.1c3.6,3.4,5.9,8.2,5.9,13.5v45.2C2133.8,824.2,2133.9,830.1,2133.9,836.1L2133.9,836.1z M1239.2,1069.7
			h-4.3c-4.3-1.1-10.3-6.6-18.1-16.5c-7.8-9.9-12.8-15.9-14.9-17.9l-136.5-133.8H1028l-75.7,73.2c-40.5,38.7-71.1,69.8-91.7,93.3
			c-37.7,0-99.7,0.6-186.1,1.6s-229.8,1.6-430.3,1.6l-47.8-0.1v152.7h1740.7v-153l-3.7,0L1239.2,1069.7L1239.2,1069.7z"/>
	</g>
</g>
</svg>
