<?xml version="1.0" encoding="UTF-8"?>
<svg id="Capa_1" data-name="Capa 1" xmlns="http://www.w3.org/2000/svg" xmlns:xlink="http://www.w3.org/1999/xlink" viewBox="0 0 2503.6 2244">
  <defs>
    <style>
      .cls-1 {
        fill: none;
      }

      .cls-2 {
        clip-path: url(#clippath-1);
      }

      .cls-3 {
        clip-path: url(#clippath-2);
      }

      .cls-4 {
        clip-path: url(#clippath);
      }

      .cls-5 {
        fill: #222;
      }
    </style>
    <clipPath id="clippath">
      <rect class="cls-1" x="397.1" y="108.76" width="1802.43" height="2040.31" transform="translate(94.24 2357.84) rotate(-86.59)"/>
    </clipPath>
    <clipPath id="clippath-1">
      <rect class="cls-1" x="162.31" y="198.85" width="2178.98" height="1846.31" transform="translate(-198.72 272.37) rotate(-11.51)"/>
    </clipPath>
    <clipPath id="clippath-2">
      <rect class="cls-1" x="162.31" y="198.85" width="2178.98" height="1846.31" transform="translate(-198.72 272.37) rotate(-11.51)"/>
    </clipPath>
  </defs>
  <g class="cls-4">
    <g class="cls-2">
      <g class="cls-3">
        <path class="cls-5" d="M2025.2,564.77c9.22-136.56-226.66-272.94-421.05-310.71-72.25-14-367.13-71.3-516.21,124.47-95.88,125.9-119.41,340.31-18.79,453.68,194.11,218.18,705.2-55.79,824.29,138.16,43.16,70.3,24.72,185.83-33.28,232.39-127.01,102.08-363.35-191.48-714.02-135.02-118.54,19.11-76.32,50.2-374.18,172.9-330.38,136.13-476.05,136.49-510.81,245.75-27.8,87.95,25.74,216.16,108.02,245.54,179.1,63.87,435.19-360.69,534.14-305.36,84.29,47.06-95.1,358.9,39.58,510.87,111.37,125.72,406.29,106.85,474.44-12.82,80.59-141.49-196.94-351.96-113.85-495.74,77.41-133.99,459.11-57.79,482.33-53.1,145.54,29.1,192.05,74.5,289.51,52.27,107.34-24.51,226.46-119.73,238.93-227.59,23.28-201.74-323.71-474.26-657.81-491.35-236.58-12.12-405.55,107.09-462.58,31.34-38.65-51.29-3.32-161.99,63.03-212.66,81.53-62.32,199.99-26.33,295.51,2.68,220.56,67,299.04,191.55,392.15,152.19,46.19-19.46,77.52-71.93,80.64-117.87Z"/>
      </g>
    </g>
  </g>
</svg>