<?xml version="1.0" encoding="UTF-8"?>
<svg id="Capa_2" data-name="Capa 2" xmlns="http://www.w3.org/2000/svg" viewBox="0 0 319.55 307.11">
  <defs>
    <style>
      .cls-1 {
        fill: #f2546b;
      }

      .cls-2 {
        fill: #fff;
      }

      .cls-3 {
        fill: #e28fff;
      }
    </style>
  </defs>
  <g id="Capa_1-2" data-name="Capa 1">
    <polygon class="cls-3" points="292.84 0 .07 0 .07 57.71 0 57.71 0 133.3 226.07 133.3 226.07 75.59 292.84 75.59 292.84 0"/>
    <g>
      <path class="cls-2" d="M21.46,38.43c0-12.06,7.07-19.38,16.53-19.38,4.53,0,8.09,2.24,10.23,4.63l-2.54,3.05c-1.93-2.09-4.43-3.56-7.63-3.56-7.07,0-11.75,5.8-11.75,15.11s4.48,15.31,11.6,15.31c3.56,0,6.26-1.58,8.65-4.17l2.59,2.95c-2.95,3.41-6.61,5.34-11.45,5.34-9.26,0-16.23-7.17-16.23-19.28Z"/>
      <path class="cls-2" d="M53.92,49.88c0-6,5.24-9.01,16.99-10.33,0-3.56-1.17-6.97-5.7-6.97-3.21,0-6.11,1.48-8.29,2.95l-1.83-3.21c2.54-1.63,6.46-3.61,10.89-3.61,6.72,0,9.56,4.53,9.56,11.35v16.99h-3.82l-.41-3.31h-.15c-2.65,2.19-5.75,3.97-9.16,3.97-4.63,0-8.09-2.85-8.09-7.83ZM70.91,50.33v-7.73c-9.31,1.12-12.46,3.41-12.46,6.97,0,3.15,2.14,4.43,4.88,4.43s4.88-1.27,7.58-3.66Z"/>
      <path class="cls-2" d="M84.35,29.43h3.82l.41,3.97h.15c2.65-2.59,5.49-4.68,9.26-4.68,5.8,0,8.45,3.76,8.45,10.84v17.5h-4.63v-16.89c0-5.19-1.58-7.38-5.24-7.38-2.85,0-4.78,1.42-7.58,4.22v20.04h-4.63v-27.62Z"/>
      <path class="cls-2" d="M113.35,43.26c0-9.21,6.26-14.55,13.33-14.55,3.61,0,6.11,1.53,8.09,3.26l-2.39,3.05c-1.63-1.42-3.31-2.44-5.49-2.44-5.04,0-8.7,4.33-8.7,10.68s3.46,10.58,8.55,10.58c2.54,0,4.78-1.17,6.51-2.75l2.03,3.1c-2.49,2.24-5.65,3.51-8.95,3.51-7.33,0-12.97-5.29-12.97-14.45Z"/>
      <path class="cls-2" d="M140.57,20.62c0-1.78,1.27-3,3.1-3s3.1,1.22,3.1,3c0,1.88-1.27,3.1-3.1,3.1s-3.1-1.22-3.1-3.1ZM141.34,29.43h4.63v27.62h-4.63v-27.62Z"/>
      <path class="cls-2" d="M153.24,43.26c0-9.21,6.05-14.55,12.82-14.55s12.82,5.34,12.82,14.55-6.05,14.45-12.82,14.45-12.82-5.29-12.82-14.45ZM174.1,43.26c0-6.36-3.26-10.68-8.04-10.68s-7.99,4.33-7.99,10.68,3.21,10.58,7.99,10.58,8.04-4.22,8.04-10.58Z"/>
      <path class="cls-2" d="M186.16,29.43h3.82l.41,3.97h.15c2.65-2.59,5.49-4.68,9.26-4.68,5.8,0,8.45,3.76,8.45,10.84v17.5h-4.63v-16.89c0-5.19-1.58-7.38-5.24-7.38-2.85,0-4.78,1.42-7.58,4.22v20.04h-4.63v-27.62Z"/>
      <path class="cls-2" d="M215.17,43.26c0-8.95,6.05-14.55,12.46-14.55,7.02,0,10.99,5.09,10.99,12.97,0,1.02-.1,1.98-.2,2.65h-18.62c.31,5.9,3.92,9.67,9.16,9.67,2.7,0,4.88-.81,6.92-2.19l1.68,3.05c-2.44,1.58-5.39,2.85-9.16,2.85-7.33,0-13.23-5.34-13.23-14.45ZM234.55,40.97c0-5.55-2.54-8.55-6.87-8.55-3.92,0-7.38,3.15-7.94,8.55h14.81Z"/>
      <path class="cls-2" d="M242.34,53.9l2.29-3.05c2.39,1.93,4.88,3.26,8.19,3.26,3.66,0,5.44-1.93,5.44-4.32,0-2.85-3.26-4.07-6.31-5.24-3.87-1.42-8.09-3.31-8.09-7.99,0-4.38,3.56-7.84,9.56-7.84,3.41,0,6.41,1.43,8.55,3.1l-2.24,3c-1.88-1.42-3.82-2.44-6.26-2.44-3.51,0-5.14,1.83-5.14,3.97,0,2.64,2.85,3.61,5.95,4.78,4.02,1.53,8.45,3.15,8.45,8.39,0,4.48-3.56,8.19-10.07,8.19-3.92,0-7.68-1.63-10.33-3.82Z"/>
    </g>
    <g>
      <path class="cls-2" d="M23.33,115l4.17-5.7c2.29,2.14,4.93,3.66,7.89,3.66,3.51,0,5.8-1.42,5.8-4.07,0-3.1-1.73-4.94-9.67-4.94v-6.41c6.46,0,8.5-1.93,8.5-4.68,0-2.49-1.53-3.87-4.32-3.87-2.54,0-4.48,1.17-6.77,3.21l-4.58-5.55c3.51-2.9,7.28-4.73,11.75-4.73,7.83,0,12.97,3.72,12.97,10.23,0,3.71-2.09,6.46-6.05,8.14v.25c4.17,1.22,7.27,4.22,7.27,8.95,0,6.92-6.46,10.79-13.99,10.79-6,0-10.23-2.08-12.97-5.29Z"/>
      <path class="cls-2" d="M55.23,114.39c9.16-8.55,15.82-14.85,15.82-20.04,0-3.51-1.88-5.34-4.93-5.34-2.59,0-4.58,1.83-6.41,3.66l-4.93-4.88c3.71-3.92,7.17-5.85,12.57-5.85,7.33,0,12.41,4.68,12.41,11.91,0,6.16-5.75,12.72-11.45,18.62,1.88-.25,4.48-.51,6.21-.51h6.97v7.63h-26.25v-5.19Z"/>
      <path class="cls-2" d="M87.65,114.64c0-3.15,2.24-5.6,5.39-5.6s5.39,2.44,5.39,5.6-2.29,5.65-5.39,5.65-5.39-2.49-5.39-5.65Z"/>
      <path class="cls-2" d="M104.03,100.95c0-12.62,5.39-19.03,13.43-19.03s13.38,6.46,13.38,19.03-5.39,19.33-13.38,19.33-13.43-6.72-13.43-19.33ZM122.29,100.95c0-9.97-2.14-12.01-4.83-12.01s-4.88,2.03-4.88,12.01,2.19,12.31,4.88,12.31,4.83-2.34,4.83-12.31Z"/>
      <path class="cls-2" d="M134.15,115l4.17-5.7c2.29,2.14,4.93,3.66,7.89,3.66,3.51,0,5.8-1.42,5.8-4.07,0-3.1-1.73-4.94-9.67-4.94v-6.41c6.46,0,8.5-1.93,8.5-4.68,0-2.49-1.53-3.87-4.32-3.87-2.54,0-4.48,1.17-6.77,3.21l-4.58-5.55c3.51-2.9,7.28-4.73,11.75-4.73,7.83,0,12.97,3.72,12.97,10.23,0,3.71-2.09,6.46-6.05,8.14v.25c4.17,1.22,7.27,4.22,7.27,8.95,0,6.92-6.46,10.79-13.99,10.79-6,0-10.23-2.08-12.97-5.29Z"/>
      <path class="cls-2" d="M166.36,115.76l4.78-5.44c1.22,1.43,3.56,2.65,5.7,2.65,3.92,0,6.97-2.75,7.33-10.99-1.93,2.44-5.09,3.82-7.22,3.82-6.36,0-11.09-3.56-11.09-11.4s5.7-12.46,12.46-12.46c7.17,0,14.14,5.29,14.14,18.42s-7.22,19.94-15.01,19.94c-5.04,0-8.75-2.14-11.09-4.53ZM178.72,99.43c1.83,0,3.87-1.02,5.24-3.51-.81-5.6-3.15-7.22-5.44-7.22s-4.43,1.58-4.43,5.7c0,3.82,2.04,5.04,4.63,5.04Z"/>
    </g>
    <polygon class="cls-1" points="74.39 173.81 74.39 249.4 93.49 249.4 93.49 307.11 319.55 307.11 319.55 249.4 319.55 231.52 319.55 173.81 74.39 173.81"/>
    <g>
      <path class="cls-2" d="M126.11,194.18h5.24l12.67,37.34h-4.99l-3.56-11.4h-13.63l-3.61,11.4h-4.78l12.67-37.34ZM123,216.36h11.29l-1.78-5.7c-1.37-4.22-2.54-8.29-3.76-12.62h-.2c-1.17,4.37-2.39,8.39-3.71,12.62l-1.83,5.7Z"/>
      <path class="cls-2" d="M148.85,203.89h3.82l.41,5.04h.15c1.93-3.51,4.73-5.75,7.83-5.75,1.22,0,2.09.15,2.95.61l-.86,4.07c-.92-.36-1.58-.46-2.7-.46-2.29,0-5.14,1.63-6.97,6.36v17.75h-4.63v-27.62Z"/>
      <path class="cls-2" d="M169.41,222.97v-15.31h-4.12v-3.51l4.32-.25.56-7.78h3.87v7.78h7.48v3.76h-7.48v15.41c0,3.41,1.07,5.34,4.27,5.34.97,0,2.24-.36,3.15-.71l.92,3.46c-1.58.51-3.41,1.02-5.09,1.02-5.9,0-7.89-3.71-7.89-9.21Z"/>
      <path class="cls-2" d="M187.01,195.09c0-1.78,1.27-3,3.1-3s3.1,1.22,3.1,3c0,1.88-1.27,3.1-3.1,3.1s-3.1-1.22-3.1-3.1ZM187.78,203.89h4.63v27.62h-4.63v-27.62Z"/>
      <path class="cls-2" d="M198.67,228.37l2.29-3.05c2.39,1.93,4.88,3.26,8.19,3.26,3.66,0,5.44-1.93,5.44-4.32,0-2.85-3.26-4.07-6.31-5.24-3.87-1.42-8.09-3.31-8.09-7.99,0-4.38,3.56-7.84,9.56-7.84,3.41,0,6.41,1.43,8.55,3.1l-2.24,3c-1.88-1.42-3.82-2.44-6.26-2.44-3.51,0-5.14,1.83-5.14,3.97,0,2.64,2.85,3.61,5.95,4.78,4.02,1.53,8.45,3.15,8.45,8.39,0,4.48-3.56,8.19-10.07,8.19-3.92,0-7.68-1.63-10.33-3.82Z"/>
      <path class="cls-2" d="M225.28,222.97v-15.31h-4.12v-3.51l4.32-.25.56-7.78h3.87v7.78h7.48v3.76h-7.48v15.41c0,3.41,1.07,5.34,4.27,5.34.97,0,2.24-.36,3.15-.71l.92,3.46c-1.58.51-3.41,1.02-5.09,1.02-5.9,0-7.89-3.71-7.89-9.21Z"/>
      <path class="cls-2" d="M240.7,224.35c0-6,5.24-9.01,16.99-10.33,0-3.56-1.17-6.97-5.7-6.97-3.21,0-6.11,1.48-8.29,2.95l-1.83-3.21c2.54-1.63,6.46-3.61,10.89-3.61,6.72,0,9.56,4.53,9.56,11.35v16.99h-3.82l-.41-3.31h-.15c-2.65,2.19-5.75,3.97-9.16,3.97-4.63,0-8.09-2.85-8.09-7.83ZM257.69,224.8v-7.73c-9.31,1.12-12.46,3.41-12.46,6.97,0,3.15,2.14,4.43,4.88,4.43s4.88-1.27,7.58-3.66Z"/>
      <path class="cls-2" d="M268.02,228.37l2.29-3.05c2.39,1.93,4.88,3.26,8.19,3.26,3.66,0,5.44-1.93,5.44-4.32,0-2.85-3.26-4.07-6.31-5.24-3.87-1.42-8.09-3.31-8.09-7.99,0-4.38,3.56-7.84,9.56-7.84,3.41,0,6.41,1.43,8.55,3.1l-2.24,3c-1.88-1.42-3.82-2.44-6.26-2.44-3.51,0-5.14,1.83-5.14,3.97,0,2.64,2.85,3.61,5.95,4.78,4.02,1.53,8.45,3.15,8.45,8.39,0,4.48-3.56,8.19-10.07,8.19-3.92,0-7.68-1.63-10.33-3.82Z"/>
    </g>
    <g>
      <path class="cls-2" d="M130.34,282.58h8.04v-20.55h-6.97v-5.6c4.07-.82,6.72-1.83,9.36-3.46h6.66v29.61h6.82v7.33h-23.91v-7.33Z"/>
      <path class="cls-2" d="M161.32,282.58h8.04v-20.55h-6.97v-5.6c4.07-.82,6.72-1.83,9.36-3.46h6.66v29.61h6.82v7.33h-23.91v-7.33Z"/>
      <path class="cls-2" d="M191.9,284.97c0-3.15,2.24-5.6,5.39-5.6s5.39,2.44,5.39,5.6-2.29,5.65-5.39,5.65-5.39-2.49-5.39-5.65Z"/>
      <path class="cls-2" d="M208.29,271.28c0-12.62,5.39-19.03,13.43-19.03s13.38,6.46,13.38,19.03-5.39,19.33-13.38,19.33-13.43-6.72-13.43-19.33ZM226.55,271.28c0-9.97-2.14-12.01-4.83-12.01s-4.88,2.03-4.88,12.01,2.19,12.31,4.88,12.31,4.83-2.34,4.83-12.31Z"/>
      <path class="cls-2" d="M239.63,286.09l4.78-5.44c1.22,1.43,3.56,2.65,5.7,2.65,3.92,0,6.97-2.75,7.33-10.99-1.93,2.44-5.09,3.82-7.22,3.82-6.36,0-11.09-3.56-11.09-11.4s5.7-12.46,12.46-12.46c7.17,0,14.14,5.29,14.14,18.42s-7.22,19.94-15.01,19.94c-5.04,0-8.75-2.14-11.09-4.53ZM252,269.76c1.83,0,3.87-1.02,5.24-3.51-.81-5.6-3.15-7.22-5.44-7.22s-4.43,1.58-4.43,5.7c0,3.82,2.04,5.04,4.63,5.04Z"/>
      <path class="cls-2" d="M269.45,285.38l4.12-5.7c2.14,2.03,4.78,3.61,7.78,3.61,3.66,0,5.95-1.83,5.95-5.39s-2.29-5.44-5.55-5.44c-2.08,0-3.1.46-5.34,1.88l-3.97-2.59.97-18.77h21.27v7.58h-13.48l-.56,6.41c1.37-.56,2.49-.76,3.92-.76,6.41,0,11.8,3.61,11.8,11.45s-6.41,12.97-13.69,12.97c-6.05,0-10.23-2.29-13.23-5.24Z"/>
    </g>
  </g>
</svg>