<?xml version="1.0" encoding="UTF-8"?>
<svg id="Capa_2" data-name="Capa 2" xmlns="http://www.w3.org/2000/svg" viewBox="0 0 411.76 412.94">
  <defs>
    <style>
      .cls-1 {
        fill: #f2546b;
      }

      .cls-2 {
        fill: #1a1a18;
      }

      .cls-3 {
        fill: #2249e9;
      }

      .cls-4 {
        fill: #fff;
      }

      .cls-5 {
        fill: #e28fff;
      }

      .cls-6 {
        fill: #dffc4a;
      }
    </style>
  </defs>
  <g id="Capa_1-2" data-name="Capa 1">
    <rect class="cls-3" y="336.9" width="411.76" height="76.04"/>
    <rect class="cls-1" x="67.46" y="230.46" width="344.31" height="76.04"/>
    <rect class="cls-5" x="60.88" y="117.02" width="349.53" height="76.04"/>
    <rect class="cls-6" x="78.84" width="332.92" height="76.04"/>
    <g>
      <path class="cls-2" d="M115.33,31.53h-9.17v-3.26h22.18v3.26h-9.17v27.05h-3.84v-27.05Z"/>
      <path class="cls-2" d="M128.67,47.39c0-7.48,4.92-11.81,10.41-11.81s10.41,4.34,10.41,11.81-4.92,11.73-10.41,11.73-10.41-4.3-10.41-11.73ZM145.6,47.39c0-5.16-2.64-8.67-6.53-8.67s-6.48,3.51-6.48,8.67,2.6,8.59,6.48,8.59,6.53-3.43,6.53-8.59Z"/>
      <path class="cls-2" d="M155.39,36.16h3.1l.33,2.56h.12c2.02-1.65,4.54-3.14,7.15-3.14,5.78,0,8.92,4.54,8.92,11.44,0,7.68-4.58,12.1-9.75,12.1-2.02,0-4.17-.95-6.2-2.6l.08,3.92v7.6h-3.76v-31.89ZM171.08,47.06c0-4.96-1.65-8.3-5.91-8.3-1.9,0-3.84,1.07-6.03,3.1v11.77c2.02,1.74,4.01,2.35,5.49,2.35,3.72,0,6.44-3.35,6.44-8.92Z"/>
      <path class="cls-2" d="M190.08,55.44h6.73v-21.73h-5.37v-2.44c2.68-.46,4.63-1.16,6.28-2.15h2.89v26.31h6.07v3.14h-16.6v-3.14Z"/>
      <path class="cls-2" d="M211.4,43.76c0-9.87,3.59-15.16,9.46-15.16s9.42,5.33,9.42,15.16-3.55,15.37-9.42,15.37-9.46-5.49-9.46-15.37ZM226.6,43.76c0-8.63-2.31-12.14-5.74-12.14s-5.78,3.51-5.78,12.14,2.31,12.35,5.78,12.35,5.74-3.72,5.74-12.35Z"/>
      <path class="cls-2" d="M234.19,45.57h10.57v2.89h-10.57v-2.89Z"/>
      <path class="cls-2" d="M256.91,54.91l3.35-4.63c1.73,1.65,3.88,2.93,6.32,2.93,2.97,0,4.83-1.49,4.83-4.38s-1.86-4.42-4.5-4.42c-1.69,0-2.52.37-4.34,1.53l-3.22-2.11.78-15.24h17.27v6.16h-10.95l-.45,5.2c1.12-.45,2.02-.62,3.18-.62,5.2,0,9.58,2.93,9.58,9.29s-5.2,10.53-11.11,10.53c-4.92,0-8.3-1.86-10.74-4.25Z"/>
      <path class="cls-2" d="M283.92,54.58c0-2.56,1.82-4.54,4.38-4.54s4.38,1.98,4.38,4.54-1.86,4.58-4.38,4.58-4.38-2.02-4.38-4.58Z"/>
      <path class="cls-2" d="M297.26,54.37c7.44-6.94,12.85-12.06,12.85-16.27,0-2.85-1.53-4.34-4.01-4.34-2.11,0-3.72,1.49-5.2,2.97l-4.01-3.97c3.02-3.18,5.82-4.75,10.2-4.75,5.95,0,10.08,3.8,10.08,9.67,0,5-4.67,10.33-9.29,15.12,1.53-.21,3.63-.41,5.04-.41h5.66v6.2h-21.31v-4.21Z"/>
      <path class="cls-2" d="M334.52,51.6h-12.93v-5.12l10.7-17.89h9.09v17.39h3.39v5.62h-3.39v6.98h-6.86v-6.98ZM334.52,45.99v-4.38c0-1.94.17-4.92.25-6.86h-.17c-.78,1.73-1.61,3.43-2.48,5.2l-3.51,6.03h5.91Z"/>
      <path class="cls-2" d="M347.82,55.49l3.88-4.42c.99,1.16,2.89,2.15,4.63,2.15,3.18,0,5.66-2.23,5.95-8.92-1.57,1.98-4.13,3.1-5.87,3.1-5.16,0-9-2.89-9-9.25s4.63-10.12,10.12-10.12c5.82,0,11.48,4.3,11.48,14.95s-5.87,16.19-12.19,16.19c-4.09,0-7.1-1.73-9-3.68ZM357.85,42.23c1.49,0,3.14-.83,4.25-2.85-.66-4.54-2.56-5.87-4.42-5.87s-3.59,1.28-3.59,4.63c0,3.1,1.65,4.09,3.76,4.09Z"/>
      <path class="cls-4" d="M115.33,141.53h-9.17v-3.26h22.18v3.26h-9.17v27.05h-3.84v-27.05Z"/>
      <path class="cls-4" d="M128.67,157.39c0-7.48,4.92-11.81,10.41-11.81s10.41,4.34,10.41,11.81-4.92,11.73-10.41,11.73-10.41-4.3-10.41-11.73ZM145.6,157.39c0-5.16-2.64-8.67-6.53-8.67s-6.48,3.51-6.48,8.67,2.6,8.59,6.48,8.59,6.53-3.43,6.53-8.59Z"/>
      <path class="cls-4" d="M155.39,146.16h3.1l.33,2.56h.12c2.02-1.65,4.54-3.14,7.15-3.14,5.78,0,8.92,4.54,8.92,11.44,0,7.68-4.58,12.1-9.75,12.1-2.02,0-4.17-.95-6.2-2.6l.08,3.92v7.6h-3.76v-31.89ZM171.08,157.06c0-4.96-1.65-8.3-5.91-8.3-1.9,0-3.84,1.07-6.03,3.1v11.77c2.02,1.74,4.01,2.35,5.49,2.35,3.72,0,6.44-3.35,6.44-8.92Z"/>
      <path class="cls-4" d="M188.27,166.35c8.88-8.84,13.88-14.13,13.88-18.96,0-3.35-1.82-5.74-5.58-5.74-2.48,0-4.63,1.57-6.28,3.51l-2.19-2.11c2.48-2.69,5.08-4.46,8.92-4.46,5.41,0,8.8,3.43,8.8,8.63,0,5.53-5.04,11.03-12.02,18.38,1.57-.12,3.39-.29,4.96-.29h8.55v3.26h-19.04v-2.23Z"/>
      <path class="cls-4" d="M211.4,153.76c0-9.87,3.59-15.16,9.46-15.16s9.42,5.33,9.42,15.16-3.55,15.37-9.42,15.37-9.46-5.49-9.46-15.37ZM226.6,153.76c0-8.63-2.31-12.14-5.74-12.14s-5.78,3.51-5.78,12.14,2.31,12.35,5.78,12.35,5.74-3.72,5.74-12.35Z"/>
      <path class="cls-4" d="M234.19,155.57h10.57v2.89h-10.57v-2.89Z"/>
      <path class="cls-4" d="M256.87,164.87l3.39-4.63c1.86,1.73,4.01,2.97,6.4,2.97,2.85,0,4.71-1.16,4.71-3.3,0-2.52-1.4-4.01-7.85-4.01v-5.21c5.25,0,6.9-1.57,6.9-3.8,0-2.02-1.24-3.14-3.51-3.14-2.07,0-3.64.95-5.49,2.6l-3.72-4.5c2.85-2.35,5.91-3.84,9.54-3.84,6.36,0,10.53,3.02,10.53,8.3,0,3.02-1.69,5.25-4.92,6.61v.21c3.39.99,5.91,3.43,5.91,7.27,0,5.62-5.25,8.76-11.36,8.76-4.87,0-8.3-1.69-10.53-4.3Z"/>
      <path class="cls-4" d="M283.92,164.58c0-2.56,1.82-4.54,4.38-4.54s4.38,1.98,4.38,4.54-1.86,4.58-4.38,4.58-4.38-2.02-4.38-4.58Z"/>
      <path class="cls-4" d="M297.26,164.37c7.44-6.94,12.85-12.06,12.85-16.27,0-2.85-1.53-4.34-4.01-4.34-2.11,0-3.72,1.49-5.2,2.97l-4.01-3.97c3.02-3.18,5.82-4.75,10.2-4.75,5.95,0,10.08,3.8,10.08,9.67,0,5-4.67,10.33-9.29,15.12,1.53-.21,3.63-.41,5.04-.41h5.66v6.2h-21.31v-4.21Z"/>
      <path class="cls-4" d="M323.9,162.64h6.53v-16.69h-5.66v-4.54c3.3-.66,5.45-1.49,7.6-2.81h5.41v24.04h5.53v5.95h-19.41v-5.95Z"/>
      <path class="cls-4" d="M347.82,160.94c0-3.59,2.23-5.78,5.04-7.31v-.17c-2.35-1.78-4.01-3.96-4.01-7.06,0-5.21,4.09-8.39,9.75-8.39s9.21,3.22,9.21,8.26c0,2.81-1.82,5.08-3.88,6.44v.21c2.89,1.57,5.16,3.88,5.16,7.89,0,4.75-4.3,8.34-10.74,8.34-6.03,0-10.53-3.35-10.53-8.22ZM362.27,160.53c0-2.48-2.4-3.39-6.11-4.96-1.2,1.12-2.06,2.77-2.06,4.5,0,2.52,2.02,3.96,4.42,3.96,2.15,0,3.76-1.07,3.76-3.51ZM361.86,146.77c0-2.23-1.28-3.63-3.43-3.63-1.69,0-3.14.99-3.14,3.26s1.94,3.39,4.92,4.58c1.07-1.36,1.65-2.73,1.65-4.21Z"/>
      <path class="cls-4" d="M115.33,251.53h-9.17v-3.26h22.18v3.26h-9.17v27.05h-3.84v-27.05Z"/>
      <path class="cls-4" d="M128.67,267.39c0-7.48,4.92-11.81,10.41-11.81s10.41,4.34,10.41,11.81-4.92,11.73-10.41,11.73-10.41-4.3-10.41-11.73ZM145.6,267.39c0-5.16-2.64-8.67-6.53-8.67s-6.48,3.51-6.48,8.67,2.6,8.59,6.48,8.59,6.53-3.43,6.53-8.59Z"/>
      <path class="cls-4" d="M155.39,256.16h3.1l.33,2.56h.12c2.02-1.65,4.54-3.14,7.15-3.14,5.78,0,8.92,4.54,8.92,11.44,0,7.68-4.58,12.1-9.75,12.1-2.02,0-4.17-.95-6.2-2.6l.08,3.92v7.6h-3.76v-31.89ZM171.08,267.06c0-4.96-1.65-8.3-5.91-8.3-1.9,0-3.84,1.07-6.03,3.1v11.77c2.02,1.74,4.01,2.35,5.49,2.35,3.72,0,6.44-3.35,6.44-8.92Z"/>
      <path class="cls-4" d="M187.6,275.11l1.86-2.48c1.73,1.74,3.92,3.35,7.44,3.35s6.44-2.6,6.44-6.69-2.48-6.53-6.28-6.53c-2.02,0-3.3.66-5.04,1.82l-2.02-1.28.95-14.17h14.75v3.22h-11.44l-.74,8.8c1.36-.74,2.68-1.24,4.5-1.24,5.04,0,9.13,2.89,9.13,9.25s-4.79,9.96-9.91,9.96c-4.71,0-7.6-1.98-9.62-4.01Z"/>
      <path class="cls-4" d="M211.4,263.76c0-9.87,3.59-15.16,9.46-15.16s9.42,5.33,9.42,15.16-3.55,15.37-9.42,15.37-9.46-5.49-9.46-15.37ZM226.6,263.76c0-8.63-2.31-12.14-5.74-12.14s-5.78,3.51-5.78,12.14,2.31,12.35,5.78,12.35,5.74-3.72,5.74-12.35Z"/>
      <path class="cls-4" d="M234.19,265.57h10.57v2.89h-10.57v-2.89Z"/>
      <path class="cls-4" d="M257.86,270.94c0-3.59,2.23-5.78,5.04-7.31v-.17c-2.35-1.78-4.01-3.96-4.01-7.06,0-5.21,4.09-8.39,9.75-8.39s9.21,3.22,9.21,8.26c0,2.81-1.82,5.08-3.88,6.44v.21c2.89,1.57,5.16,3.88,5.16,7.89,0,4.75-4.3,8.34-10.74,8.34-6.03,0-10.53-3.35-10.53-8.22ZM272.32,270.53c0-2.48-2.4-3.39-6.11-4.96-1.2,1.12-2.06,2.77-2.06,4.5,0,2.52,2.02,3.96,4.42,3.96,2.15,0,3.76-1.07,3.76-3.51ZM271.9,256.77c0-2.23-1.28-3.63-3.43-3.63-1.69,0-3.14.99-3.14,3.26s1.94,3.39,4.92,4.58c1.07-1.36,1.65-2.73,1.65-4.21Z"/>
      <path class="cls-4" d="M283.92,274.58c0-2.56,1.82-4.54,4.38-4.54s4.38,1.98,4.38,4.54-1.86,4.58-4.38,4.58-4.38-2.02-4.38-4.58Z"/>
      <path class="cls-4" d="M296.56,274.91l3.35-4.63c1.73,1.65,3.88,2.93,6.32,2.93,2.97,0,4.83-1.49,4.83-4.38s-1.86-4.42-4.5-4.42c-1.69,0-2.52.37-4.34,1.53l-3.22-2.11.78-15.24h17.27v6.16h-10.95l-.45,5.2c1.12-.45,2.02-.62,3.18-.62,5.2,0,9.58,2.93,9.58,9.29s-5.2,10.53-11.11,10.53c-4.92,0-8.3-1.86-10.74-4.25Z"/>
      <path class="cls-4" d="M322.66,275.49l3.88-4.42c.99,1.16,2.89,2.15,4.63,2.15,3.18,0,5.66-2.23,5.95-8.92-1.57,1.98-4.13,3.1-5.87,3.1-5.16,0-9-2.89-9-9.25s4.63-10.12,10.12-10.12c5.82,0,11.48,4.3,11.48,14.95s-5.87,16.19-12.19,16.19c-4.09,0-7.1-1.73-9-3.68ZM332.7,262.23c1.49,0,3.14-.83,4.25-2.85-.66-4.54-2.56-5.87-4.42-5.87s-3.59,1.28-3.59,4.63c0,3.1,1.65,4.09,3.76,4.09Z"/>
      <path class="cls-4" d="M347.57,274.37c7.44-6.94,12.85-12.06,12.85-16.27,0-2.85-1.53-4.34-4.01-4.34-2.11,0-3.72,1.49-5.2,2.97l-4.01-3.97c3.02-3.18,5.82-4.75,10.2-4.75,5.95,0,10.08,3.8,10.08,9.67,0,5-4.67,10.33-9.29,15.12,1.53-.21,3.63-.41,5.04-.41h5.66v6.2h-21.31v-4.21Z"/>
      <path class="cls-4" d="M51.76,361.53h-9.17v-3.26h22.18v3.26h-9.17v27.05h-3.84v-27.05Z"/>
      <path class="cls-4" d="M65.1,377.39c0-7.48,4.92-11.81,10.41-11.81s10.41,4.34,10.41,11.81-4.92,11.73-10.41,11.73-10.41-4.3-10.41-11.73ZM82.04,377.39c0-5.16-2.64-8.67-6.53-8.67s-6.48,3.51-6.48,8.67,2.6,8.59,6.48,8.59,6.53-3.43,6.53-8.59Z"/>
      <path class="cls-4" d="M91.82,366.16h3.1l.33,2.56h.12c2.02-1.65,4.54-3.14,7.15-3.14,5.78,0,8.92,4.54,8.92,11.44,0,7.68-4.58,12.1-9.75,12.1-2.02,0-4.17-.95-6.2-2.6l.08,3.92v7.6h-3.76v-31.89ZM107.52,377.06c0-4.96-1.65-8.3-5.91-8.3-1.9,0-3.84,1.07-6.03,3.1v11.77c2.02,1.74,4.01,2.35,5.49,2.35,3.72,0,6.44-3.35,6.44-8.92Z"/>
      <path class="cls-4" d="M126.52,385.44h6.73v-21.73h-5.37v-2.44c2.68-.46,4.63-1.16,6.28-2.15h2.89v26.31h6.07v3.14h-16.6v-3.14Z"/>
      <path class="cls-4" d="M147.83,373.76c0-9.87,3.59-15.16,9.46-15.16s9.42,5.33,9.42,15.16-3.55,15.37-9.42,15.37-9.46-5.49-9.46-15.37ZM163.03,373.76c0-8.63-2.31-12.14-5.74-12.14s-5.78,3.51-5.78,12.14,2.31,12.35,5.78,12.35,5.74-3.72,5.74-12.35Z"/>
      <path class="cls-4" d="M170.75,373.76c0-9.87,3.59-15.16,9.46-15.16s9.42,5.33,9.42,15.16-3.55,15.37-9.42,15.37-9.46-5.49-9.46-15.37ZM185.95,373.76c0-8.63-2.31-12.14-5.74-12.14s-5.78,3.51-5.78,12.14,2.31,12.35,5.78,12.35,5.74-3.72,5.74-12.35Z"/>
      <path class="cls-4" d="M202.8,375.57h10.57v2.89h-10.57v-2.89Z"/>
      <path class="cls-4" d="M227.71,382.64h6.53v-16.69h-5.66v-4.54c3.3-.66,5.45-1.49,7.6-2.81h5.41v24.04h5.53v5.95h-19.41v-5.95Z"/>
      <path class="cls-4" d="M263.48,381.6h-12.93v-5.12l10.7-17.89h9.09v17.39h3.39v5.62h-3.39v6.98h-6.86v-6.98ZM263.48,375.99v-4.38c0-1.94.17-4.92.25-6.86h-.17c-.78,1.73-1.61,3.43-2.48,5.2l-3.51,6.03h5.91Z"/>
      <path class="cls-4" d="M277.68,384.58c0-2.56,1.82-4.54,4.38-4.54s4.38,1.98,4.38,4.54-1.86,4.58-4.38,4.58-4.38-2.02-4.38-4.58Z"/>
      <path class="cls-4" d="M291.27,385.49l3.88-4.42c.99,1.16,2.89,2.15,4.63,2.15,3.18,0,5.66-2.23,5.95-8.92-1.57,1.98-4.13,3.1-5.87,3.1-5.16,0-9-2.89-9-9.25s4.63-10.12,10.12-10.12c5.82,0,11.48,4.3,11.48,14.95s-5.87,16.19-12.19,16.19c-4.09,0-7.1-1.73-9-3.68ZM301.31,372.23c1.49,0,3.14-.83,4.25-2.85-.66-4.54-2.56-5.87-4.42-5.87s-3.59,1.28-3.59,4.63c0,3.1,1.65,4.09,3.76,4.09Z"/>
      <path class="cls-4" d="M316.43,380.94c0-3.59,2.23-5.78,5.04-7.31v-.17c-2.35-1.78-4.01-3.96-4.01-7.06,0-5.21,4.09-8.39,9.75-8.39s9.21,3.22,9.21,8.26c0,2.81-1.82,5.08-3.88,6.44v.21c2.89,1.57,5.16,3.88,5.16,7.89,0,4.75-4.3,8.34-10.74,8.34-6.03,0-10.53-3.35-10.53-8.22ZM330.88,380.53c0-2.48-2.4-3.39-6.11-4.96-1.2,1.12-2.06,2.77-2.06,4.5,0,2.52,2.02,3.96,4.42,3.96,2.15,0,3.76-1.07,3.76-3.51ZM330.47,366.77c0-2.23-1.28-3.63-3.43-3.63-1.69,0-3.14.99-3.14,3.26s1.94,3.39,4.92,4.58c1.07-1.36,1.65-2.73,1.65-4.21Z"/>
      <path class="cls-4" d="M343.23,373.01c0-10.49,4.87-15.74,12.31-15.74s12.31,5.25,12.31,15.74-4.87,16.11-12.31,16.11-12.31-5.62-12.31-16.11ZM360.91,373.01c0-8.3-2.56-10.08-5.37-10.08s-5.37,1.78-5.37,10.08,2.56,10.45,5.37,10.45,5.37-2.15,5.37-10.45Z"/>
    </g>
  </g>
</svg>