<?xml version="1.0" encoding="UTF-8"?>
<svg id="Capa_2" data-name="Capa 2" xmlns="http://www.w3.org/2000/svg" viewBox="0 0 636.3 473.8">
  <defs>
    <style>
      .cls-1 {
        fill: #f2546b;
      }

      .cls-2 {
        fill: #ec2a74;
      }

      .cls-3 {
        fill: #2249e9;
      }

      .cls-4 {
        fill: #fff;
      }

      .cls-5 {
        fill: #e28fff;
      }
    </style>
  </defs>
  <g id="Capa_1-2" data-name="Capa 1">
    <rect class="cls-1" x="74.28" y="397.75" width="549.47" height="76.04"/>
    <rect class="cls-5" y="298.32" width="623.76" height="76.04"/>
    <rect class="cls-2" x="3.08" y="198.88" width="633.22" height="76.04"/>
    <rect class="cls-3" x="175.63" y="91.25" width="448.12" height="76.04"/>
    <rect class="cls-1" x="34.68" width="589.07" height="76.04"/>
    <g>
      <path class="cls-4" d="M83.14,28.18h-8.3v-6.15h24.04v6.15h-8.34v24.62h-7.39v-24.62Z"/>
      <path class="cls-4" d="M99.09,46.23c0-4.96,3.88-7.64,13.05-8.63-.17-1.9-1.16-3.02-3.55-3.02-1.86,0-3.8.74-6.15,2.06l-2.56-4.83c3.1-1.86,6.44-3.1,10.12-3.1,6.07,0,9.5,3.39,9.5,10.74v13.34h-5.99l-.5-2.35h-.21c-1.94,1.73-4.13,2.93-6.73,2.93-4.34,0-6.98-3.22-6.98-7.14ZM112.14,45.81v-3.76c-4.58.58-6.07,1.94-6.07,3.59,0,1.36.99,2.02,2.52,2.02s2.48-.7,3.55-1.86Z"/>
      <path class="cls-4" d="M124.61,61.38l1.32-5.58c.41.08,1.03.29,1.57.29,2.23,0,3.39-1.16,3.92-2.81l.33-1.2-9-22.8h7.39l3.14,9.75c.7,2.15,1.2,4.34,1.82,6.65h.21c.45-2.23.99-4.42,1.53-6.65l2.73-9.75h7.02l-8.1,23.54c-2.27,6.03-4.83,9.01-10.41,9.01-1.53,0-2.48-.17-3.47-.46Z"/>
      <path class="cls-4" d="M150.09,45.15v-25.36h7.35v25.61c0,1.57.7,2.02,1.28,2.02.25,0,.41,0,.83-.08l.87,5.41c-.78.33-1.98.62-3.63.62-5.04,0-6.69-3.3-6.69-8.22Z"/>
      <path class="cls-4" d="M162.48,41.02c0-7.77,5.53-12.31,11.52-12.31s11.48,4.54,11.48,12.31-5.53,12.35-11.48,12.35-11.52-4.54-11.52-12.35ZM177.97,41.02c0-3.88-1.24-6.36-3.97-6.36s-4.01,2.48-4.01,6.36,1.24,6.4,4.01,6.4,3.97-2.48,3.97-6.4Z"/>
      <path class="cls-4" d="M190.12,29.29h5.99l.54,4.09h.12c1.73-3.14,4.34-4.67,6.69-4.67,1.4,0,2.19.21,2.85.49l-1.2,6.32c-.87-.21-1.57-.37-2.6-.37-1.73,0-3.84,1.12-5.04,4.21v13.42h-7.35v-23.5Z"/>
      <path class="cls-4" d="M217.37,48.95l4.21-5.08c2.15,1.86,5,3.14,7.44,3.14,2.73,0,4.01-1.03,4.01-2.68,0-1.78-1.69-2.36-4.34-3.47l-3.92-1.65c-3.22-1.28-6.24-3.96-6.24-8.43,0-5.16,4.63-9.29,11.15-9.29,3.55,0,7.31,1.36,10,4.05l-3.68,4.63c-2.02-1.53-3.92-2.36-6.32-2.36-2.27,0-3.63.91-3.63,2.52,0,1.74,1.9,2.4,4.63,3.47l3.84,1.53c3.8,1.53,6.07,4.09,6.07,8.43,0,5.12-4.3,9.62-11.73,9.62-4.01,0-8.3-1.49-11.48-4.42Z"/>
      <path class="cls-4" d="M243.31,29.29h7.27l2.11,10.49c.37,2.36.62,4.67.99,7.06h.21c.41-2.4.78-4.75,1.36-7.06l2.44-10.49h6.32l2.52,10.49c.54,2.36.95,4.67,1.45,7.06h.21c.37-2.4.62-4.71,1.03-7.06l2.02-10.49h6.82l-5.54,23.5h-8.59l-1.98-8.96c-.45-2.19-.83-4.34-1.24-6.9h-.21c-.37,2.56-.7,4.71-1.12,6.9l-1.9,8.96h-8.38l-5.78-23.5Z"/>
      <path class="cls-4" d="M281.76,22.23c0-2.27,1.61-3.76,4.09-3.76s4.09,1.49,4.09,3.76-1.65,3.8-4.09,3.8-4.09-1.49-4.09-3.8ZM282.18,29.29h7.35v23.5h-7.35v-23.5Z"/>
      <path class="cls-4" d="M296.68,35.03h-3.14v-5.45l3.14-.25v-.95c0-4.96,2.35-9.17,8.88-9.17,2.07,0,3.76.41,4.79.78l-1.32,5.45c-.74-.33-1.61-.5-2.4-.5-1.61,0-2.6.87-2.6,3.22v1.12h4.17v5.74h-4.17v17.76h-7.35v-17.76Z"/>
      <path class="cls-4" d="M312.82,44.08v-9.05h-3.18v-5.45l3.63-.29.83-6.24h6.07v6.24h5.54v5.74h-5.54v8.96c0,2.6,1.24,3.63,2.97,3.63.74,0,1.57-.25,2.15-.46l1.16,5.33c-1.24.37-2.93.87-5.33.87-5.91,0-8.3-3.76-8.3-9.29Z"/>
      <path class="cls-4" d="M330.29,33.71c0-2.56,1.82-4.54,4.38-4.54s4.38,1.98,4.38,4.54-1.86,4.54-4.38,4.54-4.38-1.98-4.38-4.54ZM330.29,48.79c0-2.56,1.82-4.54,4.38-4.54s4.38,1.98,4.38,4.54-1.86,4.58-4.38,4.58-4.38-2.02-4.38-4.58Z"/>
      <path class="cls-4" d="M365.2,44.66h-13.22v-2.48l12.6-18.84h4.17v18.3h4.01v3.02h-4.01v8.14h-3.55v-8.14ZM365.2,41.64v-8.63c0-1.53.12-4.05.21-5.62h-.17c-.74,1.4-1.57,2.69-2.44,4.13l-6.9,10.12h9.29Z"/>
      <path class="cls-4" d="M376.31,39.2c0-11.85,5.33-16.4,11.24-16.4,3.14,0,5.41,1.32,7.06,3.1l-2.11,2.35c-1.2-1.45-3.02-2.31-4.83-2.31-4.17,0-7.64,3.18-7.81,12.56,1.9-2.27,4.5-3.68,6.9-3.68,5.08,0,8.39,3.06,8.39,9.04,0,5.66-3.97,9.46-8.67,9.46-5.82,0-10.16-4.71-10.16-14.13ZM379.94,41.56c.5,5.74,2.77,8.84,6.49,8.84,2.93,0,5.16-2.6,5.16-6.53s-1.82-6.24-5.45-6.24c-1.9,0-4.21,1.03-6.2,3.92Z"/>
      <path class="cls-4" d="M408.36,41.6c0-7.48,5.08-11.81,10.82-11.81,2.93,0,4.96,1.24,6.57,2.64l-1.94,2.48c-1.32-1.16-2.68-1.98-4.46-1.98-4.09,0-7.06,3.51-7.06,8.67s2.81,8.59,6.94,8.59c2.07,0,3.88-.95,5.29-2.23l1.65,2.52c-2.02,1.82-4.58,2.85-7.27,2.85-5.95,0-10.53-4.29-10.53-11.73Z"/>
      <path class="cls-4" d="M429.21,46.97c0-4.87,4.25-7.31,13.8-8.38,0-2.89-.95-5.66-4.63-5.66-2.6,0-4.96,1.2-6.73,2.39l-1.49-2.6c2.07-1.32,5.25-2.93,8.84-2.93,5.45,0,7.77,3.68,7.77,9.21v13.79h-3.1l-.33-2.68h-.12c-2.15,1.78-4.67,3.22-7.44,3.22-3.76,0-6.57-2.31-6.57-6.36ZM443.01,47.34v-6.28c-7.56.91-10.12,2.77-10.12,5.66,0,2.56,1.73,3.59,3.97,3.59s3.97-1.03,6.15-2.97Z"/>
      <path class="cls-4" d="M453.91,30.37h3.1l.33,3.22h.12c2.15-2.11,4.46-3.8,7.52-3.8,4.71,0,6.86,3.06,6.86,8.8v14.21h-3.76v-13.71c0-4.21-1.28-5.99-4.25-5.99-2.31,0-3.88,1.16-6.15,3.43v16.27h-3.76v-22.43Z"/>
      <path class="cls-4" d="M477.46,41.6c0-7.48,5.08-11.81,10.82-11.81,2.93,0,4.96,1.24,6.57,2.64l-1.94,2.48c-1.32-1.16-2.68-1.98-4.46-1.98-4.09,0-7.06,3.51-7.06,8.67s2.81,8.59,6.94,8.59c2.07,0,3.88-.95,5.29-2.23l1.65,2.52c-2.02,1.82-4.58,2.85-7.27,2.85-5.95,0-10.53-4.29-10.53-11.73Z"/>
      <path class="cls-4" d="M499.55,23.22c0-1.45,1.03-2.44,2.52-2.44s2.52.99,2.52,2.44c0,1.53-1.03,2.52-2.52,2.52s-2.52-.99-2.52-2.52ZM500.17,30.37h3.76v22.43h-3.76v-22.43Z"/>
      <path class="cls-4" d="M509.84,41.6c0-7.48,4.92-11.81,10.41-11.81s10.41,4.34,10.41,11.81-4.92,11.73-10.41,11.73-10.41-4.29-10.41-11.73ZM526.77,41.6c0-5.16-2.64-8.67-6.53-8.67s-6.48,3.51-6.48,8.67,2.6,8.59,6.48,8.59,6.53-3.43,6.53-8.59Z"/>
      <path class="cls-4" d="M536.56,30.37h3.1l.33,3.22h.12c2.15-2.11,4.46-3.8,7.52-3.8,4.71,0,6.86,3.06,6.86,8.8v14.21h-3.76v-13.71c0-4.21-1.28-5.99-4.25-5.99-2.31,0-3.88,1.16-6.15,3.43v16.27h-3.76v-22.43Z"/>
      <path class="cls-4" d="M560.1,41.6c0-7.27,4.92-11.81,10.12-11.81,5.7,0,8.92,4.13,8.92,10.53,0,.83-.08,1.61-.17,2.15h-15.12c.25,4.79,3.18,7.85,7.44,7.85,2.19,0,3.97-.66,5.62-1.78l1.36,2.48c-1.98,1.28-4.38,2.31-7.44,2.31-5.95,0-10.74-4.34-10.74-11.73ZM575.84,39.74c0-4.5-2.07-6.94-5.58-6.94-3.18,0-5.99,2.56-6.44,6.94h12.02Z"/>
      <path class="cls-4" d="M582.16,50.23l1.86-2.48c1.94,1.57,3.97,2.64,6.65,2.64,2.97,0,4.42-1.57,4.42-3.51,0-2.31-2.64-3.3-5.12-4.25-3.14-1.16-6.57-2.69-6.57-6.49,0-3.55,2.89-6.36,7.77-6.36,2.77,0,5.2,1.16,6.94,2.52l-1.82,2.44c-1.53-1.16-3.1-1.98-5.08-1.98-2.85,0-4.17,1.49-4.17,3.22,0,2.15,2.31,2.93,4.83,3.88,3.26,1.24,6.86,2.56,6.86,6.81,0,3.63-2.89,6.65-8.18,6.65-3.18,0-6.24-1.32-8.39-3.1Z"/>
      <path class="cls-4" d="M208.62,121.15h8.84c9.38,0,15.57,4.54,15.57,15.24s-6.2,15.53-15.16,15.53h-9.25v-30.77ZM217,145.97c4.96,0,8.47-2.27,8.47-9.58s-3.51-9.33-8.47-9.33h-.99v18.92h.99Z"/>
      <path class="cls-4" d="M238.15,128.42h5.99l.54,4.09h.12c1.73-3.14,4.34-4.67,6.69-4.67,1.4,0,2.19.21,2.85.49l-1.2,6.32c-.87-.21-1.57-.37-2.6-.37-1.73,0-3.84,1.12-5.04,4.21v13.42h-7.35v-23.5Z"/>
      <path class="cls-4" d="M254.92,145.35c0-4.96,3.88-7.64,13.05-8.63-.17-1.9-1.16-3.02-3.55-3.02-1.86,0-3.8.74-6.15,2.06l-2.56-4.83c3.1-1.86,6.44-3.1,10.12-3.1,6.07,0,9.5,3.39,9.5,10.74v13.34h-5.99l-.5-2.35h-.21c-1.94,1.73-4.13,2.93-6.73,2.93-4.34,0-6.98-3.22-6.98-7.14ZM267.97,144.94v-3.76c-4.58.58-6.07,1.94-6.07,3.59,0,1.36.99,2.02,2.52,2.02s2.48-.7,3.55-1.86Z"/>
      <path class="cls-4" d="M280.98,118.92h7.23v18.34h.21l6.94-8.84h8.05l-8.18,9.79,8.76,13.71h-7.97l-5.08-8.92-2.73,3.1v5.82h-7.23v-33Z"/>
      <path class="cls-4" d="M304.44,140.15c0-7.6,5.49-12.31,11.15-12.31,6.77,0,10.08,4.91,10.08,11.32,0,1.32-.17,2.6-.33,3.18h-13.8c.66,3.22,2.89,4.54,5.87,4.54,1.69,0,3.26-.5,4.96-1.49l2.44,4.42c-2.44,1.73-5.66,2.68-8.38,2.68-6.77,0-11.98-4.54-11.98-12.35ZM319.43,137.5c0-2.31-1.03-4.05-3.72-4.05-2.02,0-3.8,1.28-4.3,4.05h8.01Z"/>
      <path class="cls-4" d="M330.29,132.84c0-2.56,1.82-4.54,4.38-4.54s4.38,1.98,4.38,4.54-1.86,4.54-4.38,4.54-4.38-1.98-4.38-4.54ZM330.29,147.91c0-2.56,1.82-4.54,4.38-4.54s4.38,1.98,4.38,4.54-1.86,4.58-4.38,4.58-4.38-2.02-4.38-4.58Z"/>
      <path class="cls-4" d="M352.97,149.69c8.88-8.84,13.88-14.13,13.88-18.96,0-3.35-1.82-5.74-5.58-5.74-2.48,0-4.63,1.57-6.28,3.51l-2.19-2.11c2.48-2.69,5.08-4.46,8.92-4.46,5.41,0,8.8,3.43,8.8,8.63,0,5.53-5.04,11.03-12.02,18.38,1.57-.12,3.39-.29,4.96-.29h8.55v3.26h-19.04v-2.23Z"/>
      <path class="cls-4" d="M376.47,149.36l2.11-2.35c1.16,1.45,2.97,2.31,4.83,2.31,4.13,0,7.64-3.22,7.81-12.64-1.9,2.36-4.5,3.8-6.9,3.8-5.12,0-8.43-3.1-8.43-9.13,0-5.62,3.97-9.42,8.67-9.42,5.82,0,10.16,4.71,10.16,14.17,0,11.81-5.33,16.36-11.19,16.36-3.14,0-5.45-1.32-7.06-3.1ZM384.94,137.67c1.9,0,4.3-1.2,6.2-4.01-.5-5.7-2.81-8.76-6.57-8.76-2.89,0-5.12,2.56-5.12,6.44s1.82,6.32,5.49,6.32Z"/>
      <path class="cls-4" d="M408.36,140.73c0-7.48,5.08-11.81,10.82-11.81,2.93,0,4.96,1.24,6.57,2.64l-1.94,2.48c-1.32-1.16-2.68-1.98-4.46-1.98-4.09,0-7.06,3.51-7.06,8.67s2.81,8.59,6.94,8.59c2.07,0,3.88-.95,5.29-2.23l1.65,2.52c-2.02,1.82-4.58,2.85-7.27,2.85-5.95,0-10.53-4.29-10.53-11.73Z"/>
      <path class="cls-4" d="M429.21,146.1c0-4.87,4.25-7.31,13.8-8.38,0-2.89-.95-5.66-4.63-5.66-2.6,0-4.96,1.2-6.73,2.39l-1.49-2.6c2.07-1.32,5.25-2.93,8.84-2.93,5.45,0,7.77,3.68,7.77,9.21v13.79h-3.1l-.33-2.68h-.12c-2.15,1.78-4.67,3.22-7.44,3.22-3.76,0-6.57-2.31-6.57-6.36ZM443.01,146.47v-6.28c-7.56.91-10.12,2.77-10.12,5.66,0,2.56,1.73,3.59,3.97,3.59s3.97-1.03,6.15-2.97Z"/>
      <path class="cls-4" d="M453.91,129.49h3.1l.33,3.22h.12c2.15-2.11,4.46-3.8,7.52-3.8,4.71,0,6.86,3.06,6.86,8.8v14.21h-3.76v-13.71c0-4.21-1.28-5.99-4.25-5.99-2.31,0-3.88,1.16-6.15,3.43v16.27h-3.76v-22.43Z"/>
      <path class="cls-4" d="M477.45,140.73c0-7.48,5.08-11.81,10.82-11.81,2.93,0,4.96,1.24,6.57,2.64l-1.94,2.48c-1.32-1.16-2.68-1.98-4.46-1.98-4.09,0-7.06,3.51-7.06,8.67s2.81,8.59,6.94,8.59c2.07,0,3.88-.95,5.29-2.23l1.65,2.52c-2.02,1.82-4.58,2.85-7.27,2.85-5.95,0-10.53-4.29-10.53-11.73Z"/>
      <path class="cls-4" d="M499.55,122.35c0-1.45,1.03-2.44,2.52-2.44s2.52.99,2.52,2.44c0,1.53-1.03,2.52-2.52,2.52s-2.52-.99-2.52-2.52ZM500.17,129.49h3.76v22.43h-3.76v-22.43Z"/>
      <path class="cls-4" d="M509.84,140.73c0-7.48,4.92-11.81,10.41-11.81s10.41,4.34,10.41,11.81-4.92,11.73-10.41,11.73-10.41-4.29-10.41-11.73ZM526.77,140.73c0-5.16-2.64-8.67-6.53-8.67s-6.48,3.51-6.48,8.67,2.6,8.59,6.48,8.59,6.53-3.43,6.53-8.59Z"/>
      <path class="cls-4" d="M536.56,129.49h3.1l.33,3.22h.12c2.15-2.11,4.46-3.8,7.52-3.8,4.71,0,6.86,3.06,6.86,8.8v14.21h-3.76v-13.71c0-4.21-1.28-5.99-4.25-5.99-2.31,0-3.88,1.16-6.15,3.43v16.27h-3.76v-22.43Z"/>
      <path class="cls-4" d="M560.1,140.73c0-7.27,4.92-11.81,10.12-11.81,5.7,0,8.92,4.13,8.92,10.53,0,.83-.08,1.61-.17,2.15h-15.12c.25,4.79,3.18,7.85,7.44,7.85,2.19,0,3.97-.66,5.62-1.78l1.36,2.48c-1.98,1.28-4.38,2.31-7.44,2.31-5.95,0-10.74-4.34-10.74-11.73ZM575.84,138.87c0-4.5-2.07-6.94-5.58-6.94-3.18,0-5.99,2.56-6.44,6.94h12.02Z"/>
      <path class="cls-4" d="M582.16,149.36l1.86-2.48c1.94,1.57,3.97,2.64,6.65,2.64,2.97,0,4.42-1.57,4.42-3.51,0-2.31-2.64-3.3-5.12-4.25-3.14-1.16-6.57-2.69-6.57-6.49,0-3.55,2.89-6.36,7.77-6.36,2.77,0,5.2,1.16,6.94,2.52l-1.82,2.44c-1.53-1.16-3.1-1.98-5.08-1.98-2.85,0-4.17,1.49-4.17,3.22,0,2.15,2.31,2.93,4.83,3.88,3.26,1.24,6.86,2.56,6.86,6.81,0,3.63-2.89,6.65-8.18,6.65-3.18,0-6.24-1.32-8.39-3.1Z"/>
      <path class="cls-4" d="M21.23,220.28h7.97l4.87,13.3c.62,1.78,1.12,3.72,1.69,5.58h.21c.62-1.86,1.12-3.8,1.69-5.58l4.71-13.3h8.01v30.77h-6.73v-10.53c0-3.06.58-7.64.99-10.66h-.21l-2.56,7.35-4.13,11.23h-4.05l-4.17-11.23-2.48-7.35h-.17c.37,3.02.95,7.6.95,10.66v10.53h-6.61v-30.77Z"/>
      <path class="cls-4" d="M55.55,239.28c0-7.77,5.53-12.31,11.52-12.31s11.48,4.54,11.48,12.31-5.53,12.35-11.48,12.35-11.52-4.54-11.52-12.35ZM71.04,239.28c0-3.88-1.24-6.36-3.97-6.36s-4.01,2.48-4.01,6.36,1.24,6.4,4.01,6.4,3.97-2.48,3.97-6.4Z"/>
      <path class="cls-4" d="M83.18,227.54h5.99l.54,4.09h.12c1.73-3.14,4.34-4.67,6.69-4.67,1.4,0,2.19.21,2.85.49l-1.2,6.32c-.87-.21-1.57-.37-2.6-.37-1.73,0-3.84,1.12-5.04,4.21v13.42h-7.35v-23.5Z"/>
      <path class="cls-4" d="M100.45,255.01c0-1.94,1.12-3.51,3.3-4.62v-.21c-1.24-.83-2.15-2.06-2.15-4.05,0-1.65,1.07-3.3,2.64-4.38v-.17c-1.69-1.16-3.22-3.35-3.22-6.11,0-5.7,4.75-8.51,9.83-8.51,1.36,0,2.64.21,3.72.58h8.63v5.33h-3.59c.33.66.62,1.73.62,2.85,0,5.49-4.17,7.89-9.38,7.89-.78,0-1.73-.12-2.77-.41-.5.5-.74.83-.74,1.65,0,1.07.95,1.57,3.47,1.57h3.72c5.78,0,9.09,1.78,9.09,6.03,0,4.96-5.16,8.47-13.34,8.47-5.41,0-9.83-1.69-9.83-5.91ZM116.56,253.73c0-1.4-1.24-1.69-3.43-1.69h-2.23c-1.69,0-2.6-.08-3.35-.29-.74.66-1.07,1.32-1.07,2.11,0,1.65,1.98,2.48,4.96,2.48s5.12-1.12,5.12-2.6ZM113.87,235.47c0-2.35-1.28-3.59-3.02-3.59s-2.97,1.24-2.97,3.59c0,2.48,1.28,3.72,2.97,3.72s3.02-1.24,3.02-3.72Z"/>
      <path class="cls-4" d="M125.35,244.48c0-4.96,3.88-7.64,13.05-8.63-.17-1.9-1.16-3.02-3.55-3.02-1.86,0-3.8.74-6.15,2.06l-2.56-4.83c3.1-1.86,6.44-3.1,10.12-3.1,6.07,0,9.5,3.39,9.5,10.74v13.34h-5.99l-.5-2.35h-.21c-1.94,1.73-4.13,2.93-6.73,2.93-4.34,0-6.98-3.22-6.98-7.14ZM138.41,244.07v-3.76c-4.58.58-6.07,1.94-6.07,3.59,0,1.36.99,2.02,2.52,2.02s2.48-.7,3.55-1.86Z"/>
      <path class="cls-4" d="M151.41,227.54h5.99l.54,2.93h.12c1.94-1.9,4.34-3.51,7.52-3.51,5.12,0,7.31,3.68,7.31,9.54v14.54h-7.35v-13.63c0-3.26-.87-4.17-2.73-4.17-1.65,0-2.64.74-4.05,2.11v15.7h-7.35v-23.5Z"/>
      <path class="cls-4" d="M185.69,220.28h7.52l1.94,14.04c.41,3.22.83,6.44,1.24,9.75h.17c.58-3.3,1.2-6.57,1.82-9.75l3.14-14.04h6.24l3.18,14.04c.62,3.14,1.16,6.44,1.78,9.75h.21c.37-3.3.78-6.57,1.16-9.75l2.02-14.04h6.98l-5.33,30.77h-9.29l-2.77-13.38c-.5-2.35-.91-4.83-1.2-7.15h-.17c-.41,2.31-.79,4.79-1.24,7.15l-2.69,13.38h-9.13l-5.58-30.77Z"/>
      <path class="cls-4" d="M225.1,244.48c0-4.96,3.88-7.64,13.05-8.63-.17-1.9-1.16-3.02-3.55-3.02-1.86,0-3.8.74-6.15,2.06l-2.56-4.83c3.1-1.86,6.44-3.1,10.12-3.1,6.07,0,9.5,3.39,9.5,10.74v13.34h-5.99l-.5-2.35h-.21c-1.94,1.73-4.13,2.93-6.73,2.93-4.34,0-6.98-3.22-6.98-7.14ZM238.15,244.07v-3.76c-4.58.58-6.07,1.94-6.07,3.59,0,1.36.99,2.02,2.52,2.02s2.48-.7,3.55-1.86Z"/>
      <path class="cls-4" d="M251.16,243.41v-25.36h7.35v25.61c0,1.57.7,2.02,1.28,2.02.25,0,.41,0,.83-.08l.87,5.41c-.78.33-1.98.62-3.63.62-5.04,0-6.69-3.3-6.69-8.22Z"/>
      <path class="cls-4" d="M264.87,243.41v-25.36h7.35v25.61c0,1.57.7,2.02,1.28,2.02.25,0,.41,0,.83-.08l.87,5.41c-.78.33-1.98.62-3.63.62-5.04,0-6.69-3.3-6.69-8.22Z"/>
      <path class="cls-4" d="M277.26,239.28c0-7.6,5.49-12.31,11.15-12.31,6.77,0,10.08,4.91,10.08,11.32,0,1.32-.17,2.6-.33,3.18h-13.8c.66,3.22,2.89,4.54,5.87,4.54,1.69,0,3.26-.5,4.96-1.49l2.44,4.42c-2.44,1.73-5.66,2.68-8.38,2.68-6.77,0-11.98-4.54-11.98-12.35ZM292.26,236.63c0-2.31-1.03-4.05-3.72-4.05-2.02,0-3.8,1.28-4.3,4.05h8.01Z"/>
      <path class="cls-4" d="M303.2,227.54h5.99l.54,2.93h.12c1.94-1.9,4.34-3.51,7.52-3.51,5.12,0,7.31,3.68,7.31,9.54v14.54h-7.35v-13.63c0-3.26-.87-4.17-2.73-4.17-1.65,0-2.64.74-4.05,2.11v15.7h-7.35v-23.5Z"/>
      <path class="cls-4" d="M330.29,231.96c0-2.56,1.82-4.54,4.38-4.54s4.38,1.98,4.38,4.54-1.86,4.54-4.38,4.54-4.38-1.98-4.38-4.54ZM330.29,247.04c0-2.56,1.82-4.54,4.38-4.54s4.38,1.98,4.38,4.54-1.86,4.58-4.38,4.58-4.38-2.02-4.38-4.58Z"/>
      <path class="cls-4" d="M354.79,247.91h6.73v-21.73h-5.37v-2.44c2.68-.46,4.63-1.16,6.28-2.15h2.89v26.31h6.07v3.14h-16.6v-3.14Z"/>
      <path class="cls-4" d="M375.23,247.58l1.86-2.48c1.73,1.73,3.92,3.35,7.44,3.35s6.44-2.6,6.44-6.69-2.48-6.53-6.28-6.53c-2.02,0-3.3.66-5.04,1.82l-2.02-1.28.95-14.17h14.75v3.22h-11.44l-.74,8.8c1.36-.74,2.68-1.24,4.5-1.24,5.04,0,9.13,2.89,9.13,9.25s-4.79,9.96-9.91,9.96c-4.71,0-7.6-1.98-9.62-4.01Z"/>
      <path class="cls-4" d="M408.36,239.85c0-7.48,5.08-11.81,10.82-11.81,2.93,0,4.96,1.24,6.57,2.64l-1.94,2.48c-1.32-1.16-2.68-1.98-4.46-1.98-4.09,0-7.06,3.51-7.06,8.67s2.81,8.59,6.94,8.59c2.07,0,3.88-.95,5.29-2.23l1.65,2.52c-2.02,1.82-4.58,2.85-7.27,2.85-5.95,0-10.53-4.29-10.53-11.73Z"/>
      <path class="cls-4" d="M429.21,245.22c0-4.87,4.25-7.31,13.8-8.38,0-2.89-.95-5.66-4.63-5.66-2.6,0-4.96,1.2-6.73,2.39l-1.49-2.6c2.07-1.32,5.25-2.93,8.84-2.93,5.45,0,7.77,3.68,7.77,9.21v13.79h-3.1l-.33-2.68h-.12c-2.15,1.78-4.67,3.22-7.44,3.22-3.76,0-6.57-2.31-6.57-6.36ZM443.01,245.6v-6.28c-7.56.91-10.12,2.77-10.12,5.66,0,2.56,1.73,3.59,3.97,3.59s3.97-1.03,6.15-2.97Z"/>
      <path class="cls-4" d="M453.91,228.62h3.1l.33,3.22h.12c2.15-2.11,4.46-3.8,7.52-3.8,4.71,0,6.86,3.06,6.86,8.8v14.21h-3.76v-13.71c0-4.21-1.28-5.99-4.25-5.99-2.31,0-3.88,1.16-6.15,3.43v16.27h-3.76v-22.43Z"/>
      <path class="cls-4" d="M477.45,239.85c0-7.48,5.08-11.81,10.82-11.81,2.93,0,4.96,1.24,6.57,2.64l-1.94,2.48c-1.32-1.16-2.68-1.98-4.46-1.98-4.09,0-7.06,3.51-7.06,8.67s2.81,8.59,6.94,8.59c2.07,0,3.88-.95,5.29-2.23l1.65,2.52c-2.02,1.82-4.58,2.85-7.27,2.85-5.95,0-10.53-4.29-10.53-11.73Z"/>
      <path class="cls-4" d="M499.55,221.47c0-1.45,1.03-2.44,2.52-2.44s2.52.99,2.52,2.44c0,1.53-1.03,2.52-2.52,2.52s-2.52-.99-2.52-2.52ZM500.17,228.62h3.76v22.43h-3.76v-22.43Z"/>
      <path class="cls-4" d="M509.84,239.85c0-7.48,4.92-11.81,10.41-11.81s10.41,4.34,10.41,11.81-4.92,11.73-10.41,11.73-10.41-4.29-10.41-11.73ZM526.77,239.85c0-5.16-2.64-8.67-6.53-8.67s-6.48,3.51-6.48,8.67,2.6,8.59,6.48,8.59,6.53-3.43,6.53-8.59Z"/>
      <path class="cls-4" d="M536.56,228.62h3.1l.33,3.22h.12c2.15-2.11,4.46-3.8,7.52-3.8,4.71,0,6.86,3.06,6.86,8.8v14.21h-3.76v-13.71c0-4.21-1.28-5.99-4.25-5.99-2.31,0-3.88,1.16-6.15,3.43v16.27h-3.76v-22.43Z"/>
      <path class="cls-4" d="M560.1,239.85c0-7.27,4.92-11.81,10.12-11.81,5.7,0,8.92,4.13,8.92,10.53,0,.83-.08,1.61-.17,2.15h-15.12c.25,4.79,3.18,7.85,7.44,7.85,2.19,0,3.97-.66,5.62-1.78l1.36,2.48c-1.98,1.28-4.38,2.31-7.44,2.31-5.95,0-10.74-4.34-10.74-11.73ZM575.84,237.99c0-4.5-2.07-6.94-5.58-6.94-3.18,0-5.99,2.56-6.44,6.94h12.02Z"/>
      <path class="cls-4" d="M582.16,248.49l1.86-2.48c1.94,1.57,3.97,2.64,6.65,2.64,2.97,0,4.42-1.57,4.42-3.51,0-2.31-2.64-3.3-5.12-4.25-3.14-1.16-6.57-2.69-6.57-6.49,0-3.55,2.89-6.36,7.77-6.36,2.77,0,5.2,1.16,6.94,2.52l-1.82,2.44c-1.53-1.16-3.1-1.98-5.08-1.98-2.85,0-4.17,1.49-4.17,3.22,0,2.15,2.31,2.93,4.83,3.88,3.26,1.24,6.86,2.56,6.86,6.81,0,3.63-2.89,6.65-8.18,6.65-3.18,0-6.24-1.32-8.39-3.1Z"/>
      <path class="cls-4" d="M38.16,319.4h8.84l9.54,30.77h-7.77l-1.78-7.06h-9.09l-1.78,7.06h-7.52l9.54-30.77ZM39.32,337.41h6.28l-.66-2.6c-.83-3.06-1.61-6.73-2.44-9.87h-.17c-.74,3.22-1.57,6.81-2.35,9.87l-.66,2.6Z"/>
      <path class="cls-4" d="M59.19,326.67h5.99l.54,4.09h.12c1.73-3.14,4.34-4.67,6.69-4.67,1.4,0,2.19.21,2.85.49l-1.2,6.32c-.87-.21-1.57-.37-2.6-.37-1.73,0-3.84,1.12-5.04,4.21v13.42h-7.35v-23.5Z"/>
      <path class="cls-4" d="M77.94,319.61c0-2.27,1.61-3.76,4.09-3.76s4.09,1.49,4.09,3.76-1.65,3.8-4.09,3.8-4.09-1.49-4.09-3.8ZM78.35,326.67h7.35v23.5h-7.35v-23.5Z"/>
      <path class="cls-4" d="M90.58,343.61c0-4.96,3.88-7.64,13.05-8.63-.17-1.9-1.16-3.02-3.55-3.02-1.86,0-3.8.74-6.15,2.06l-2.56-4.83c3.1-1.86,6.44-3.1,10.12-3.1,6.07,0,9.5,3.39,9.5,10.74v13.34h-5.99l-.5-2.35h-.21c-1.94,1.73-4.13,2.93-6.73,2.93-4.34,0-6.98-3.22-6.98-7.14ZM103.63,343.19v-3.76c-4.58.58-6.07,1.94-6.07,3.59,0,1.36.99,2.02,2.52,2.02s2.48-.7,3.55-1.86Z"/>
      <path class="cls-4" d="M116.64,326.67h5.99l.54,2.93h.12c1.94-1.9,4.34-3.51,7.52-3.51,5.12,0,7.31,3.68,7.31,9.54v14.54h-7.35v-13.63c0-3.26-.87-4.17-2.73-4.17-1.65,0-2.64.74-4.05,2.11v15.7h-7.35v-23.5Z"/>
      <path class="cls-4" d="M142.78,343.61c0-4.96,3.88-7.64,13.05-8.63-.17-1.9-1.16-3.02-3.55-3.02-1.86,0-3.8.74-6.15,2.06l-2.56-4.83c3.1-1.86,6.44-3.1,10.12-3.1,6.07,0,9.5,3.39,9.5,10.74v13.34h-5.99l-.5-2.35h-.21c-1.94,1.73-4.13,2.93-6.73,2.93-4.34,0-6.98-3.22-6.98-7.14ZM155.83,343.19v-3.76c-4.58.58-6.07,1.94-6.07,3.59,0,1.36.99,2.02,2.52,2.02s2.48-.7,3.55-1.86Z"/>
      <path class="cls-4" d="M177.48,334.97c0-10.24,6.9-16.11,15.12-16.11,4.5,0,7.72,1.9,9.83,4.01l-3.88,4.71c-1.53-1.36-3.14-2.4-5.7-2.4-4.54,0-7.81,3.55-7.81,9.54s2.73,9.66,8.47,9.66c1.07,0,2.23-.29,2.89-.78v-4.96h-4.87v-6.03h11.44v14.38c-2.15,2.06-5.95,3.76-10.24,3.76-8.51,0-15.24-5.37-15.24-15.78Z"/>
      <path class="cls-4" d="M208.58,326.67h5.99l.54,4.09h.12c1.73-3.14,4.34-4.67,6.69-4.67,1.4,0,2.19.21,2.85.49l-1.2,6.32c-.87-.21-1.57-.37-2.6-.37-1.73,0-3.84,1.12-5.04,4.21v13.42h-7.35v-23.5Z"/>
      <path class="cls-4" d="M225.35,343.61c0-4.96,3.88-7.64,13.05-8.63-.17-1.9-1.16-3.02-3.55-3.02-1.86,0-3.8.74-6.15,2.06l-2.56-4.83c3.1-1.86,6.44-3.1,10.12-3.1,6.07,0,9.5,3.39,9.5,10.74v13.34h-5.99l-.5-2.35h-.21c-1.94,1.73-4.13,2.93-6.73,2.93-4.34,0-6.98-3.22-6.98-7.14ZM238.4,343.19v-3.76c-4.58.58-6.07,1.94-6.07,3.59,0,1.36.99,2.02,2.52,2.02s2.48-.7,3.55-1.86Z"/>
      <path class="cls-4" d="M251.41,326.67h5.99l.54,2.93h.12c1.94-1.9,4.34-3.51,7.52-3.51,5.12,0,7.31,3.68,7.31,9.54v14.54h-7.35v-13.63c0-3.26-.87-4.17-2.73-4.17-1.65,0-2.64.74-4.05,2.11v15.7h-7.35v-23.5Z"/>
      <path class="cls-4" d="M277.39,338.4c0-7.68,4.83-12.31,9.71-12.31,2.6,0,4.13.95,5.66,2.44l-.25-3.51v-7.85h7.35v33h-5.99l-.54-2.27h-.17c-1.65,1.65-3.92,2.85-6.15,2.85-5.87,0-9.62-4.67-9.62-12.35ZM292.5,342.74v-9.25c-1.12-1.03-2.44-1.4-3.68-1.4-2.02,0-3.88,1.9-3.88,6.24s1.49,6.4,4.01,6.4c1.4,0,2.52-.46,3.55-1.98Z"/>
      <path class="cls-4" d="M304.44,338.4c0-7.6,5.49-12.31,11.15-12.31,6.77,0,10.08,4.91,10.08,11.32,0,1.32-.17,2.6-.33,3.18h-13.8c.66,3.22,2.89,4.54,5.87,4.54,1.69,0,3.26-.5,4.96-1.49l2.44,4.42c-2.44,1.73-5.66,2.68-8.38,2.68-6.77,0-11.98-4.54-11.98-12.35ZM319.43,335.76c0-2.31-1.03-4.05-3.72-4.05-2.02,0-3.8,1.28-4.3,4.05h8.01Z"/>
      <path class="cls-4" d="M330.29,331.09c0-2.56,1.82-4.54,4.38-4.54s4.38,1.98,4.38,4.54-1.86,4.54-4.38,4.54-4.38-1.98-4.38-4.54ZM330.29,346.17c0-2.56,1.82-4.54,4.38-4.54s4.38,1.98,4.38,4.54-1.86,4.58-4.38,4.58-4.38-2.02-4.38-4.58Z"/>
      <path class="cls-4" d="M354.79,347.04h6.73v-21.73h-5.37v-2.44c2.68-.46,4.63-1.16,6.28-2.15h2.89v26.31h6.07v3.14h-16.6v-3.14Z"/>
      <path class="cls-4" d="M377.71,347.04h6.73v-21.73h-5.37v-2.44c2.68-.46,4.63-1.16,6.28-2.15h2.89v26.31h6.07v3.14h-16.6v-3.14Z"/>
      <path class="cls-4" d="M408.36,338.98c0-7.48,5.08-11.81,10.82-11.81,2.93,0,4.96,1.24,6.57,2.64l-1.94,2.48c-1.32-1.16-2.68-1.98-4.46-1.98-4.09,0-7.06,3.51-7.06,8.67s2.81,8.59,6.94,8.59c2.07,0,3.88-.95,5.29-2.23l1.65,2.52c-2.02,1.82-4.58,2.85-7.27,2.85-5.95,0-10.53-4.29-10.53-11.73Z"/>
      <path class="cls-4" d="M429.21,344.35c0-4.87,4.25-7.31,13.8-8.38,0-2.89-.95-5.66-4.63-5.66-2.6,0-4.96,1.2-6.73,2.39l-1.49-2.6c2.07-1.32,5.25-2.93,8.84-2.93,5.45,0,7.77,3.68,7.77,9.21v13.79h-3.1l-.33-2.68h-.12c-2.15,1.78-4.67,3.22-7.44,3.22-3.76,0-6.57-2.31-6.57-6.36ZM443.01,344.72v-6.28c-7.56.91-10.12,2.77-10.12,5.66,0,2.56,1.73,3.59,3.97,3.59s3.97-1.03,6.15-2.97Z"/>
      <path class="cls-4" d="M453.91,327.75h3.1l.33,3.22h.12c2.15-2.11,4.46-3.8,7.52-3.8,4.71,0,6.86,3.06,6.86,8.8v14.21h-3.76v-13.71c0-4.21-1.28-5.99-4.25-5.99-2.31,0-3.88,1.16-6.15,3.43v16.27h-3.76v-22.43Z"/>
      <path class="cls-4" d="M477.45,338.98c0-7.48,5.08-11.81,10.82-11.81,2.93,0,4.96,1.24,6.57,2.64l-1.94,2.48c-1.32-1.16-2.68-1.98-4.46-1.98-4.09,0-7.06,3.51-7.06,8.67s2.81,8.59,6.94,8.59c2.07,0,3.88-.95,5.29-2.23l1.65,2.52c-2.02,1.82-4.58,2.85-7.27,2.85-5.95,0-10.53-4.29-10.53-11.73Z"/>
      <path class="cls-4" d="M499.55,320.6c0-1.45,1.03-2.44,2.52-2.44s2.52.99,2.52,2.44c0,1.53-1.03,2.52-2.52,2.52s-2.52-.99-2.52-2.52ZM500.17,327.75h3.76v22.43h-3.76v-22.43Z"/>
      <path class="cls-4" d="M509.84,338.98c0-7.48,4.92-11.81,10.41-11.81s10.41,4.34,10.41,11.81-4.92,11.73-10.41,11.73-10.41-4.29-10.41-11.73ZM526.77,338.98c0-5.16-2.64-8.67-6.53-8.67s-6.48,3.51-6.48,8.67,2.6,8.59,6.48,8.59,6.53-3.43,6.53-8.59Z"/>
      <path class="cls-4" d="M536.56,327.75h3.1l.33,3.22h.12c2.15-2.11,4.46-3.8,7.52-3.8,4.71,0,6.86,3.06,6.86,8.8v14.21h-3.76v-13.71c0-4.21-1.28-5.99-4.25-5.99-2.31,0-3.88,1.16-6.15,3.43v16.27h-3.76v-22.43Z"/>
      <path class="cls-4" d="M560.1,338.98c0-7.27,4.92-11.81,10.12-11.81,5.7,0,8.92,4.13,8.92,10.53,0,.83-.08,1.61-.17,2.15h-15.12c.25,4.79,3.18,7.85,7.44,7.85,2.19,0,3.97-.66,5.62-1.78l1.36,2.48c-1.98,1.28-4.38,2.31-7.44,2.31-5.95,0-10.74-4.34-10.74-11.73ZM575.84,337.12c0-4.5-2.07-6.94-5.58-6.94-3.18,0-5.99,2.56-6.44,6.94h12.02Z"/>
      <path class="cls-4" d="M582.16,347.61l1.86-2.48c1.94,1.57,3.97,2.64,6.65,2.64,2.97,0,4.42-1.57,4.42-3.51,0-2.31-2.64-3.3-5.12-4.25-3.14-1.16-6.57-2.69-6.57-6.49,0-3.55,2.89-6.36,7.77-6.36,2.77,0,5.2,1.16,6.94,2.52l-1.82,2.44c-1.53-1.16-3.1-1.98-5.08-1.98-2.85,0-4.17,1.49-4.17,3.22,0,2.15,2.31,2.93,4.83,3.88,3.26,1.24,6.86,2.56,6.86,6.81,0,3.63-2.89,6.65-8.18,6.65-3.18,0-6.24-1.32-8.39-3.1Z"/>
      <path class="cls-4" d="M114.57,418.53h7.39v24.58h11.98v6.2h-19.37v-30.77Z"/>
      <path class="cls-4" d="M137.66,442.73c0-4.96,3.88-7.64,13.05-8.63-.17-1.9-1.16-3.02-3.55-3.02-1.86,0-3.8.74-6.15,2.07l-2.56-4.83c3.1-1.86,6.44-3.1,10.12-3.1,6.07,0,9.5,3.39,9.5,10.74v13.34h-5.99l-.5-2.36h-.21c-1.94,1.74-4.13,2.93-6.73,2.93-4.34,0-6.98-3.22-6.98-7.15ZM150.71,442.32v-3.76c-4.58.58-6.07,1.94-6.07,3.59,0,1.36.99,2.02,2.52,2.02s2.48-.7,3.55-1.86Z"/>
      <path class="cls-4" d="M162.53,437.53c0-7.68,4.83-12.31,9.71-12.31,2.6,0,4.13.95,5.66,2.44l-.25-3.51v-7.85h7.35v33h-5.99l-.54-2.27h-.17c-1.65,1.65-3.92,2.85-6.15,2.85-5.87,0-9.62-4.67-9.62-12.35ZM177.64,441.87v-9.25c-1.12-1.03-2.44-1.4-3.68-1.4-2.02,0-3.88,1.9-3.88,6.24s1.49,6.4,4.01,6.4c1.4,0,2.52-.45,3.55-1.98Z"/>
      <path class="cls-4" d="M190.36,457.89l1.32-5.58c.41.08,1.03.29,1.57.29,2.23,0,3.39-1.16,3.92-2.81l.33-1.2-9-22.8h7.39l3.14,9.75c.7,2.15,1.2,4.34,1.82,6.65h.21c.45-2.23.99-4.42,1.53-6.65l2.73-9.75h7.02l-8.1,23.54c-2.27,6.03-4.83,9-10.41,9-1.53,0-2.48-.16-3.47-.45Z"/>
      <path class="cls-4" d="M224.48,434.1c0-10.24,6.9-16.11,15.12-16.11,4.5,0,7.72,1.9,9.83,4.01l-3.88,4.71c-1.53-1.36-3.14-2.4-5.7-2.4-4.54,0-7.81,3.55-7.81,9.54s2.73,9.67,8.47,9.67c1.07,0,2.23-.29,2.89-.79v-4.96h-4.87v-6.03h11.44v14.37c-2.15,2.07-5.95,3.76-10.24,3.76-8.51,0-15.24-5.37-15.24-15.78Z"/>
      <path class="cls-4" d="M254.55,442.73c0-4.96,3.88-7.64,13.05-8.63-.17-1.9-1.16-3.02-3.55-3.02-1.86,0-3.8.74-6.15,2.07l-2.56-4.83c3.1-1.86,6.44-3.1,10.12-3.1,6.07,0,9.5,3.39,9.5,10.74v13.34h-5.99l-.5-2.36h-.21c-1.94,1.74-4.13,2.93-6.73,2.93-4.34,0-6.98-3.22-6.98-7.15ZM267.6,442.32v-3.76c-4.58.58-6.07,1.94-6.07,3.59,0,1.36.99,2.02,2.52,2.02s2.48-.7,3.55-1.86Z"/>
      <path class="cls-4" d="M279.2,453.27c0-1.94,1.12-3.51,3.3-4.63v-.21c-1.24-.83-2.15-2.07-2.15-4.05,0-1.65,1.07-3.3,2.64-4.38v-.16c-1.69-1.16-3.22-3.35-3.22-6.11,0-5.7,4.75-8.51,9.83-8.51,1.36,0,2.64.21,3.72.58h8.63v5.33h-3.59c.33.66.62,1.74.62,2.85,0,5.49-4.17,7.89-9.38,7.89-.78,0-1.73-.12-2.77-.41-.5.49-.74.83-.74,1.65,0,1.07.95,1.57,3.47,1.57h3.72c5.78,0,9.09,1.78,9.09,6.03,0,4.96-5.16,8.47-13.34,8.47-5.41,0-9.83-1.69-9.83-5.91ZM295.31,451.98c0-1.4-1.24-1.69-3.43-1.69h-2.23c-1.69,0-2.6-.08-3.35-.29-.74.66-1.07,1.32-1.07,2.11,0,1.65,1.98,2.48,4.96,2.48s5.12-1.12,5.12-2.6ZM292.63,433.73c0-2.36-1.28-3.59-3.02-3.59s-2.97,1.24-2.97,3.59c0,2.48,1.28,3.72,2.97,3.72s3.02-1.24,3.02-3.72Z"/>
      <path class="cls-4" d="M304.11,442.73c0-4.96,3.88-7.64,13.05-8.63-.17-1.9-1.16-3.02-3.55-3.02-1.86,0-3.8.74-6.15,2.07l-2.56-4.83c3.1-1.86,6.44-3.1,10.12-3.1,6.07,0,9.5,3.39,9.5,10.74v13.34h-5.99l-.5-2.36h-.21c-1.94,1.74-4.13,2.93-6.73,2.93-4.34,0-6.98-3.22-6.98-7.15ZM317.16,442.32v-3.76c-4.58.58-6.07,1.94-6.07,3.59,0,1.36.99,2.02,2.52,2.02s2.48-.7,3.55-1.86Z"/>
      <path class="cls-4" d="M330.09,430.22c0-2.56,1.82-4.54,4.38-4.54s4.38,1.98,4.38,4.54-1.86,4.54-4.38,4.54-4.38-1.98-4.38-4.54ZM330.09,445.29c0-2.56,1.82-4.54,4.38-4.54s4.38,1.98,4.38,4.54-1.86,4.59-4.38,4.59-4.38-2.02-4.38-4.59Z"/>
      <path class="cls-4" d="M354.79,446.16h6.73v-21.73h-5.37v-2.44c2.68-.46,4.63-1.16,6.28-2.15h2.89v26.31h6.07v3.14h-16.6v-3.14Z"/>
      <path class="cls-4" d="M376.1,434.47c0-9.87,3.59-15.16,9.46-15.16s9.42,5.33,9.42,15.16-3.55,15.37-9.42,15.37-9.46-5.49-9.46-15.37ZM391.3,434.47c0-8.63-2.31-12.14-5.74-12.14s-5.78,3.51-5.78,12.14,2.31,12.35,5.78,12.35,5.74-3.72,5.74-12.35Z"/>
      <path class="cls-4" d="M408.36,438.11c0-7.48,5.08-11.81,10.82-11.81,2.93,0,4.96,1.24,6.57,2.64l-1.94,2.48c-1.32-1.16-2.68-1.98-4.46-1.98-4.09,0-7.06,3.51-7.06,8.68s2.81,8.59,6.94,8.59c2.07,0,3.88-.95,5.29-2.23l1.65,2.52c-2.02,1.82-4.58,2.85-7.27,2.85-5.95,0-10.53-4.3-10.53-11.73Z"/>
      <path class="cls-4" d="M429.21,443.48c0-4.88,4.25-7.31,13.8-8.38,0-2.89-.95-5.66-4.63-5.66-2.6,0-4.96,1.2-6.73,2.4l-1.49-2.6c2.07-1.32,5.25-2.93,8.84-2.93,5.45,0,7.77,3.68,7.77,9.21v13.8h-3.1l-.33-2.69h-.12c-2.15,1.78-4.67,3.22-7.44,3.22-3.76,0-6.57-2.31-6.57-6.36ZM443.01,443.85v-6.28c-7.56.91-10.12,2.77-10.12,5.66,0,2.56,1.73,3.59,3.97,3.59s3.97-1.03,6.15-2.97Z"/>
      <path class="cls-4" d="M453.91,426.87h3.1l.33,3.22h.12c2.15-2.11,4.46-3.8,7.52-3.8,4.71,0,6.86,3.06,6.86,8.8v14.21h-3.76v-13.71c0-4.21-1.28-5.99-4.25-5.99-2.31,0-3.88,1.16-6.15,3.43v16.28h-3.76v-22.43Z"/>
      <path class="cls-4" d="M477.46,438.11c0-7.48,5.08-11.81,10.82-11.81,2.93,0,4.96,1.24,6.57,2.64l-1.94,2.48c-1.32-1.16-2.68-1.98-4.46-1.98-4.09,0-7.06,3.51-7.06,8.68s2.81,8.59,6.94,8.59c2.07,0,3.88-.95,5.29-2.23l1.65,2.52c-2.02,1.82-4.58,2.85-7.27,2.85-5.95,0-10.53-4.3-10.53-11.73Z"/>
      <path class="cls-4" d="M499.55,419.72c0-1.45,1.03-2.44,2.52-2.44s2.52.99,2.52,2.44c0,1.53-1.03,2.52-2.52,2.52s-2.52-.99-2.52-2.52ZM500.17,426.87h3.76v22.43h-3.76v-22.43Z"/>
      <path class="cls-4" d="M509.84,438.11c0-7.48,4.92-11.81,10.41-11.81s10.41,4.34,10.41,11.81-4.92,11.73-10.41,11.73-10.41-4.3-10.41-11.73ZM526.77,438.11c0-5.16-2.64-8.68-6.53-8.68s-6.48,3.51-6.48,8.68,2.6,8.59,6.48,8.59,6.53-3.43,6.53-8.59Z"/>
      <path class="cls-4" d="M536.56,426.87h3.1l.33,3.22h.12c2.15-2.11,4.46-3.8,7.52-3.8,4.71,0,6.86,3.06,6.86,8.8v14.21h-3.76v-13.71c0-4.21-1.28-5.99-4.25-5.99-2.31,0-3.88,1.16-6.15,3.43v16.28h-3.76v-22.43Z"/>
      <path class="cls-4" d="M560.1,438.11c0-7.27,4.92-11.81,10.12-11.81,5.7,0,8.92,4.13,8.92,10.53,0,.83-.08,1.61-.17,2.15h-15.12c.25,4.79,3.18,7.85,7.44,7.85,2.19,0,3.97-.66,5.62-1.78l1.36,2.48c-1.98,1.28-4.38,2.31-7.44,2.31-5.95,0-10.74-4.34-10.74-11.73ZM575.84,436.25c0-4.5-2.06-6.94-5.58-6.94-3.18,0-5.99,2.56-6.44,6.94h12.02Z"/>
      <path class="cls-4" d="M582.16,446.74l1.86-2.48c1.94,1.57,3.97,2.64,6.65,2.64,2.97,0,4.42-1.57,4.42-3.51,0-2.31-2.64-3.3-5.12-4.26-3.14-1.16-6.57-2.68-6.57-6.48,0-3.55,2.89-6.36,7.77-6.36,2.77,0,5.2,1.16,6.94,2.52l-1.82,2.44c-1.53-1.16-3.1-1.98-5.08-1.98-2.85,0-4.17,1.49-4.17,3.22,0,2.15,2.31,2.93,4.83,3.88,3.26,1.24,6.86,2.56,6.86,6.82,0,3.63-2.89,6.65-8.18,6.65-3.18,0-6.24-1.32-8.39-3.1Z"/>
    </g>
  </g>
</svg>